<svg width="321" height="249" viewBox="0 0 321 249" fill="none" xmlns="http://www.w3.org/2000/svg">
<path d="M67.7216 164.271C58.8287 164.271 50.5787 162.878 42.9716 160.092C35.4715 157.199 28.9358 153.128 23.3644 147.878C17.9001 142.628 13.6143 136.467 10.5072 129.396C7.40002 122.217 5.84644 114.342 5.84644 105.771C5.84644 97.1991 7.40002 89.3777 10.5072 82.3062C13.6143 75.1276 17.9001 68.9133 23.3644 63.6633C28.9358 58.4133 35.4715 54.3954 42.9716 51.6097C50.5787 48.7168 58.8287 47.2704 67.7216 47.2704C78.1145 47.2704 87.3824 49.0918 95.5253 52.7347C103.775 56.3776 110.632 61.6276 116.097 68.4848L95.8467 86.8062C92.2038 82.5205 88.186 79.2527 83.7931 77.0026C79.5074 74.7526 74.6859 73.6276 69.3288 73.6276C64.7216 73.6276 60.4895 74.3776 56.6323 75.8776C52.7752 77.3776 49.4537 79.5741 46.668 82.4669C43.9894 85.2527 41.8465 88.6277 40.2394 92.592C38.7394 96.5563 37.9894 100.949 37.9894 105.771C37.9894 110.592 38.7394 114.985 40.2394 118.949C41.8465 122.913 43.9894 126.342 46.668 129.235C49.4537 132.021 52.7752 134.164 56.6323 135.664C60.4895 137.164 64.7216 137.914 69.3288 137.914C74.6859 137.914 79.5074 136.789 83.7931 134.539C88.186 132.289 92.2038 129.021 95.8467 124.735L116.097 143.056C110.632 149.806 103.775 155.056 95.5253 158.806C87.3824 162.449 78.1145 164.271 67.7216 164.271ZM168.722 164.271C159.508 164.271 150.615 163.146 142.043 160.896C133.579 158.539 126.668 155.539 121.311 151.896L131.758 128.431C136.793 131.646 142.579 134.324 149.115 136.467C155.758 138.503 162.347 139.521 168.883 139.521C173.276 139.521 176.811 139.146 179.49 138.396C182.169 137.539 184.097 136.467 185.276 135.181C186.561 133.789 187.204 132.181 187.204 130.36C187.204 127.789 186.026 125.753 183.669 124.253C181.311 122.753 178.258 121.521 174.508 120.556C170.758 119.592 166.579 118.628 161.972 117.663C157.472 116.699 152.918 115.467 148.311 113.967C143.811 112.467 139.686 110.538 135.936 108.181C132.186 105.717 129.133 102.556 126.776 98.6991C124.418 94.7348 123.24 89.7527 123.24 83.7527C123.24 77.0026 125.061 70.8955 128.704 65.4312C132.454 59.9669 138.026 55.574 145.418 52.2526C152.811 48.9311 162.026 47.2704 173.061 47.2704C180.454 47.2704 187.686 48.1276 194.758 49.8419C201.936 51.449 208.311 53.8597 213.883 57.074L204.079 80.6991C198.722 77.8062 193.419 75.6634 188.169 74.2705C182.919 72.7705 177.829 72.0205 172.901 72.0205C168.508 72.0205 164.972 72.5026 162.293 73.4669C159.615 74.3241 157.686 75.5026 156.508 77.0026C155.329 78.5026 154.74 80.2169 154.74 82.1455C154.74 84.6098 155.865 86.592 158.115 88.092C160.472 89.4848 163.526 90.6634 167.276 91.6277C171.133 92.4848 175.311 93.3956 179.811 94.3598C184.419 95.3241 188.972 96.5563 193.472 98.0563C198.079 99.4491 202.258 101.378 206.008 103.842C209.758 106.199 212.758 109.36 215.008 113.324C217.365 117.181 218.544 122.056 218.544 127.949C218.544 134.485 216.669 140.539 212.919 146.11C209.276 151.574 203.758 155.967 196.365 159.289C189.079 162.61 179.865 164.271 168.722 164.271ZM233.243 162.021V49.5204H265.064V136.789H318.743V162.021H233.243Z" fill="#0C0F2F"/>
<path d="M17.4858 205.1C15.96 205.1 14.5444 204.861 13.2391 204.383C11.9523 203.886 10.8309 203.188 9.87491 202.287C8.93733 201.386 8.20198 200.329 7.66885 199.116C7.13572 197.884 6.86915 196.533 6.86915 195.062C6.86915 193.591 7.13572 192.249 7.66885 191.036C8.20198 189.804 8.93733 188.738 9.87491 187.837C10.8309 186.936 11.9523 186.247 13.2391 185.769C14.5444 185.273 15.96 185.025 17.4858 185.025C19.269 185.025 20.8592 185.337 22.2564 185.962C23.672 186.587 24.8485 187.488 25.7861 188.665L22.3116 191.808C21.6865 191.073 20.9971 190.512 20.2434 190.126C19.508 189.74 18.6808 189.547 17.7616 189.547C16.9711 189.547 16.2449 189.676 15.5831 189.933C14.9213 190.19 14.3514 190.567 13.8734 191.064C13.4138 191.542 13.0461 192.121 12.7704 192.801C12.513 193.481 12.3843 194.235 12.3843 195.062C12.3843 195.889 12.513 196.643 12.7704 197.323C13.0461 198.004 13.4138 198.592 13.8734 199.088C14.3514 199.566 14.9213 199.934 15.5831 200.191C16.2449 200.449 16.9711 200.577 17.7616 200.577C18.6808 200.577 19.508 200.384 20.2434 199.998C20.9971 199.612 21.6865 199.051 22.3116 198.316L25.7861 201.46C24.8485 202.618 23.672 203.519 22.2564 204.162C20.8592 204.787 19.269 205.1 17.4858 205.1ZM25.581 204.714L34.1019 185.411H39.4792L48.0276 204.714H42.347L35.6737 188.085H37.8246L31.1513 204.714H25.581ZM30.2413 200.963L31.6477 196.937H41.0786L42.4849 200.963H30.2413ZM49.5755 204.714V185.411H54.0704L62.0673 198.537H59.6958L67.4722 185.411H71.967L72.0222 204.714H67.0034L66.9483 193.049H67.8031L61.9846 202.811H59.558L53.574 193.049H54.6219V204.714H49.5755ZM73.5692 204.714L82.0901 185.411H87.4674L96.0159 204.714H90.3353L83.6619 188.085H85.8128L79.1395 204.714H73.5692ZM78.2295 200.963L79.6359 196.937H89.0668L90.4731 200.963H78.2295ZM106.918 205.1C105.393 205.1 103.977 204.861 102.672 204.383C101.385 203.886 100.263 203.188 99.3075 202.287C98.3699 201.386 97.6346 200.329 97.1014 199.116C96.5683 197.884 96.3017 196.533 96.3017 195.062C96.3017 193.591 96.5683 192.249 97.1014 191.036C97.6346 189.804 98.3699 188.738 99.3075 187.837C100.263 186.936 101.385 186.247 102.672 185.769C103.977 185.273 105.393 185.025 106.918 185.025C108.702 185.025 110.292 185.337 111.689 185.962C113.105 186.587 114.281 187.488 115.219 188.665L111.744 191.808C111.119 191.073 110.43 190.512 109.676 190.126C108.941 189.74 108.113 189.547 107.194 189.547C106.404 189.547 105.677 189.676 105.016 189.933C104.354 190.19 103.784 190.567 103.306 191.064C102.846 191.542 102.479 192.121 102.203 192.801C101.946 193.481 101.817 194.235 101.817 195.062C101.817 195.889 101.946 196.643 102.203 197.323C102.479 198.004 102.846 198.592 103.306 199.088C103.784 199.566 104.354 199.934 105.016 200.191C105.677 200.449 106.404 200.577 107.194 200.577C108.113 200.577 108.941 200.384 109.676 199.998C110.43 199.612 111.119 199.051 111.744 198.316L115.219 201.46C114.281 202.618 113.105 203.519 111.689 204.162C110.292 204.787 108.702 205.1 106.918 205.1ZM130.559 185.411H136.019V204.714H130.559V185.411ZM123.113 204.714H117.653V185.411H123.113V204.714ZM130.945 197.185H122.727V192.663H130.945V197.185ZM149.604 205.1C148.06 205.1 146.635 204.852 145.33 204.355C144.025 203.859 142.885 203.16 141.91 202.259C140.955 201.34 140.21 200.274 139.677 199.061C139.144 197.847 138.877 196.514 138.877 195.062C138.877 193.61 139.144 192.277 139.677 191.064C140.21 189.85 140.955 188.793 141.91 187.892C142.885 186.973 144.025 186.265 145.33 185.769C146.635 185.273 148.06 185.025 149.604 185.025C151.167 185.025 152.591 185.273 153.878 185.769C155.184 186.265 156.314 186.973 157.27 187.892C158.226 188.793 158.971 189.85 159.504 191.064C160.055 192.277 160.331 193.61 160.331 195.062C160.331 196.514 160.055 197.856 159.504 199.088C158.971 200.302 158.226 201.359 157.27 202.259C156.314 203.16 155.184 203.859 153.878 204.355C152.591 204.852 151.167 205.1 149.604 205.1ZM149.604 200.577C150.339 200.577 151.02 200.449 151.645 200.191C152.288 199.934 152.84 199.566 153.299 199.088C153.777 198.592 154.145 198.004 154.402 197.323C154.678 196.643 154.816 195.889 154.816 195.062C154.816 194.216 154.678 193.463 154.402 192.801C154.145 192.121 153.777 191.542 153.299 191.064C152.84 190.567 152.288 190.19 151.645 189.933C151.02 189.676 150.339 189.547 149.604 189.547C148.869 189.547 148.179 189.676 147.536 189.933C146.911 190.19 146.359 190.567 145.881 191.064C145.422 191.542 145.054 192.121 144.778 192.801C144.521 193.463 144.392 194.216 144.392 195.062C144.392 195.889 144.521 196.643 144.778 197.323C145.054 198.004 145.422 198.592 145.881 199.088C146.359 199.566 146.911 199.934 147.536 200.191C148.179 200.449 148.869 200.577 149.604 200.577ZM162.638 198.868V194.842H170.69V198.868H162.638ZM180.396 205.1C178.815 205.1 177.289 204.907 175.818 204.521C174.366 204.116 173.18 203.601 172.261 202.976L174.054 198.95C174.918 199.502 175.91 199.961 177.032 200.329C178.172 200.678 179.302 200.853 180.424 200.853C181.177 200.853 181.784 200.789 182.244 200.66C182.703 200.513 183.034 200.329 183.236 200.108C183.457 199.869 183.567 199.594 183.567 199.281C183.567 198.84 183.365 198.491 182.961 198.233C182.556 197.976 182.032 197.765 181.389 197.599C180.745 197.434 180.028 197.268 179.238 197.103C178.466 196.937 177.684 196.726 176.894 196.468C176.122 196.211 175.414 195.88 174.771 195.476C174.127 195.053 173.603 194.511 173.199 193.849C172.794 193.169 172.592 192.314 172.592 191.284C172.592 190.126 172.905 189.078 173.53 188.141C174.173 187.203 175.129 186.449 176.398 185.879C177.666 185.31 179.247 185.025 181.141 185.025C182.409 185.025 183.65 185.172 184.863 185.466C186.095 185.742 187.189 186.155 188.145 186.707L186.463 190.76C185.544 190.264 184.634 189.896 183.733 189.657C182.832 189.4 181.959 189.271 181.113 189.271C180.359 189.271 179.753 189.354 179.293 189.519C178.833 189.666 178.503 189.869 178.3 190.126C178.098 190.383 177.997 190.678 177.997 191.008C177.997 191.431 178.19 191.771 178.576 192.029C178.981 192.268 179.504 192.47 180.148 192.635C180.81 192.783 181.527 192.939 182.299 193.104C183.089 193.27 183.871 193.481 184.643 193.738C185.433 193.977 186.15 194.308 186.794 194.731C187.437 195.136 187.952 195.678 188.338 196.358C188.742 197.02 188.945 197.856 188.945 198.868C188.945 199.989 188.623 201.028 187.979 201.984C187.354 202.921 186.408 203.675 185.139 204.245C183.889 204.815 182.308 205.1 180.396 205.1ZM189.15 204.714L197.671 185.411H203.048L211.597 204.714H205.916L199.243 188.085H201.394L194.721 204.714H189.15ZM193.811 200.963L195.217 196.937H204.648L206.054 200.963H193.811ZM197.671 183.839L201.366 179.647H206.606L201.421 183.839H197.671ZM213.145 204.714V185.411H217.64L228.284 198.261H226.161V185.411H231.51V204.714H227.015L216.371 191.863H218.495V204.714H213.145ZM244.986 205.1C243.46 205.1 242.044 204.861 240.739 204.383C239.452 203.886 238.331 203.188 237.375 202.287C236.437 201.386 235.702 200.329 235.169 199.116C234.635 197.884 234.369 196.533 234.369 195.062C234.369 193.591 234.635 192.249 235.169 191.036C235.702 189.804 236.437 188.738 237.375 187.837C238.331 186.936 239.452 186.247 240.739 185.769C242.044 185.273 243.46 185.025 244.986 185.025C246.769 185.025 248.359 185.337 249.756 185.962C251.172 186.587 252.348 187.488 253.286 188.665L249.811 191.808C249.186 191.073 248.497 190.512 247.743 190.126C247.008 189.74 246.18 189.547 245.261 189.547C244.471 189.547 243.745 189.676 243.083 189.933C242.421 190.19 241.851 190.567 241.373 191.064C240.914 191.542 240.546 192.121 240.27 192.801C240.013 193.481 239.884 194.235 239.884 195.062C239.884 195.889 240.013 196.643 240.27 197.323C240.546 198.004 240.914 198.592 241.373 199.088C241.851 199.566 242.421 199.934 243.083 200.191C243.745 200.449 244.471 200.577 245.261 200.577C246.18 200.577 247.008 200.384 247.743 199.998C248.497 199.612 249.186 199.051 249.811 198.316L253.286 201.46C252.348 202.618 251.172 203.519 249.756 204.162C248.359 204.787 246.769 205.1 244.986 205.1ZM268.626 185.411H274.086V204.714H268.626V185.411ZM261.18 204.714H255.72V185.411H261.18V204.714ZM269.012 197.185H260.794V192.663H269.012V197.185ZM282.956 192.884H291.918V196.965H282.956V192.884ZM283.342 200.495H293.435V204.714H277.937V185.411H293.076V189.63H283.342V200.495ZM295.499 204.714V201.294L306.86 187.81L307.522 189.74H295.747V185.411H312.376V188.83L301.014 202.315L300.353 200.384H312.789V204.714H295.499Z" fill="#0C0F2F"/>
<path d="M12.5322 240.428V221.125H15.2897V238.029H25.7409V240.428H12.5322ZM56.5721 240.649C55.1014 240.649 53.7318 240.4 52.4633 239.904C51.2132 239.408 50.1286 238.718 49.2094 237.836C48.2902 236.935 47.5732 235.887 47.0585 234.692C46.5437 233.497 46.2864 232.192 46.2864 230.776C46.2864 229.361 46.5437 228.056 47.0585 226.861C47.5732 225.666 48.2902 224.627 49.2094 223.745C50.1286 222.844 51.2132 222.145 52.4633 221.649C53.7134 221.153 55.083 220.904 56.5721 220.904C58.0428 220.904 59.394 221.153 60.6257 221.649C61.8758 222.127 62.9605 222.816 63.8797 223.717C64.8172 224.6 65.5342 225.638 66.0306 226.833C66.5453 228.028 66.8027 229.343 66.8027 230.776C66.8027 232.21 66.5453 233.525 66.0306 234.72C65.5342 235.915 64.8172 236.963 63.8797 237.863C62.9605 238.746 61.8758 239.435 60.6257 239.932C59.394 240.41 58.0428 240.649 56.5721 240.649ZM56.5721 238.194C57.6384 238.194 58.6219 238.011 59.5227 237.643C60.4419 237.275 61.2324 236.76 61.8942 236.099C62.5744 235.418 63.0984 234.628 63.466 233.727C63.8521 232.826 64.0451 231.843 64.0451 230.776C64.0451 229.71 63.8521 228.727 63.466 227.826C63.0984 226.925 62.5744 226.144 61.8942 225.482C61.2324 224.802 60.4419 224.278 59.5227 223.91C58.6219 223.542 57.6384 223.359 56.5721 223.359C55.4875 223.359 54.4855 223.542 53.5664 223.91C52.6655 224.278 51.875 224.802 51.1948 225.482C50.5146 226.144 49.9815 226.925 49.5954 227.826C49.2278 228.727 49.0439 229.71 49.0439 230.776C49.0439 231.843 49.2278 232.826 49.5954 233.727C49.9815 234.628 50.5146 235.418 51.1948 236.099C51.875 236.76 52.6655 237.275 53.5664 237.643C54.4855 238.011 55.4875 238.194 56.5721 238.194ZM99.0344 240.649C97.5453 240.649 96.1757 240.41 94.9256 239.932C93.6755 239.435 92.5909 238.746 91.6717 237.863C90.7525 236.963 90.0355 235.915 89.5208 234.72C89.006 233.525 88.7487 232.21 88.7487 230.776C88.7487 229.343 89.006 228.028 89.5208 226.833C90.0355 225.638 90.7525 224.6 91.6717 223.717C92.6093 222.816 93.7031 222.127 94.9532 221.649C96.2033 221.153 97.5821 220.904 99.0896 220.904C100.615 220.904 102.013 221.153 103.281 221.649C104.55 222.145 105.625 222.89 106.507 223.883L104.798 225.592C104.007 224.82 103.143 224.259 102.206 223.91C101.286 223.542 100.285 223.359 99.1999 223.359C98.0968 223.359 97.0673 223.542 96.1114 223.91C95.1738 224.278 94.3557 224.793 93.6571 225.454C92.9769 226.116 92.4438 226.907 92.0578 227.826C91.6901 228.727 91.5062 229.71 91.5062 230.776C91.5062 231.824 91.6901 232.808 92.0578 233.727C92.4438 234.628 92.9769 235.418 93.6571 236.099C94.3557 236.76 95.1738 237.275 96.1114 237.643C97.049 238.011 98.0693 238.194 99.1723 238.194C100.202 238.194 101.185 238.038 102.123 237.726C103.079 237.395 103.961 236.852 104.77 236.099L106.342 238.194C105.386 239.003 104.265 239.619 102.978 240.042C101.709 240.446 100.395 240.649 99.0344 240.649ZM103.695 237.836V230.666H106.342V238.194L103.695 237.836ZM130.925 240.428V221.125H133.682V240.428H130.925ZM164.39 240.649C162.919 240.649 161.513 240.428 160.171 239.987C158.829 239.527 157.772 238.939 156.999 238.222L158.02 236.071C158.755 236.714 159.693 237.248 160.832 237.67C161.972 238.093 163.158 238.305 164.39 238.305C165.511 238.305 166.421 238.176 167.12 237.919C167.818 237.661 168.333 237.312 168.664 236.871C168.995 236.411 169.16 235.896 169.16 235.326C169.16 234.665 168.94 234.132 168.499 233.727C168.076 233.323 167.515 233.001 166.816 232.762C166.136 232.505 165.382 232.284 164.555 232.1C163.728 231.916 162.891 231.705 162.046 231.466C161.219 231.208 160.456 230.887 159.757 230.501C159.077 230.115 158.525 229.6 158.102 228.956C157.68 228.295 157.468 227.449 157.468 226.42C157.468 225.427 157.726 224.517 158.24 223.69C158.773 222.844 159.582 222.173 160.667 221.676C161.77 221.162 163.167 220.904 164.859 220.904C165.98 220.904 167.092 221.051 168.195 221.346C169.298 221.64 170.254 222.063 171.063 222.614L170.153 224.82C169.326 224.269 168.453 223.873 167.533 223.634C166.614 223.377 165.723 223.248 164.859 223.248C163.774 223.248 162.882 223.386 162.184 223.662C161.485 223.938 160.97 224.305 160.639 224.765C160.327 225.225 160.171 225.739 160.171 226.309C160.171 226.989 160.382 227.532 160.805 227.936C161.246 228.341 161.807 228.662 162.487 228.901C163.186 229.14 163.949 229.361 164.776 229.563C165.603 229.747 166.43 229.958 167.258 230.197C168.103 230.436 168.866 230.749 169.546 231.135C170.245 231.521 170.806 232.036 171.229 232.679C171.651 233.323 171.863 234.15 171.863 235.161C171.863 236.135 171.596 237.045 171.063 237.891C170.53 238.718 169.703 239.389 168.581 239.904C167.478 240.4 166.081 240.649 164.39 240.649ZM198.758 240.428V223.524H192.14V221.125H208.106V223.524H201.488V240.428H198.758ZM230.413 240.428V221.125H233.17V240.428H230.413ZM266.884 240.649C265.413 240.649 264.052 240.41 262.802 239.932C261.571 239.435 260.495 238.746 259.576 237.863C258.675 236.963 257.967 235.915 257.453 234.72C256.938 233.525 256.681 232.21 256.681 230.776C256.681 229.343 256.938 228.028 257.453 226.833C257.967 225.638 258.684 224.6 259.604 223.717C260.523 222.816 261.598 222.127 262.83 221.649C264.08 221.153 265.44 220.904 266.911 220.904C268.4 220.904 269.77 221.162 271.02 221.676C272.288 222.173 273.364 222.917 274.246 223.91L272.454 225.647C271.718 224.875 270.891 224.305 269.972 223.938C269.053 223.552 268.069 223.359 267.021 223.359C265.937 223.359 264.926 223.542 263.988 223.91C263.069 224.278 262.269 224.793 261.589 225.454C260.909 226.116 260.376 226.907 259.99 227.826C259.622 228.727 259.438 229.71 259.438 230.776C259.438 231.843 259.622 232.835 259.99 233.755C260.376 234.655 260.909 235.437 261.589 236.099C262.269 236.76 263.069 237.275 263.988 237.643C264.926 238.011 265.937 238.194 267.021 238.194C268.069 238.194 269.053 238.011 269.972 237.643C270.891 237.257 271.718 236.668 272.454 235.878L274.246 237.615C273.364 238.608 272.288 239.362 271.02 239.876C269.77 240.391 268.391 240.649 266.884 240.649ZM303.082 240.649C301.611 240.649 300.205 240.428 298.863 239.987C297.52 239.527 296.463 238.939 295.691 238.222L296.712 236.071C297.447 236.714 298.385 237.248 299.524 237.67C300.664 238.093 301.85 238.305 303.082 238.305C304.203 238.305 305.113 238.176 305.812 237.919C306.51 237.661 307.025 237.312 307.356 236.871C307.687 236.411 307.852 235.896 307.852 235.326C307.852 234.665 307.632 234.132 307.19 233.727C306.768 233.323 306.207 233.001 305.508 232.762C304.828 232.505 304.074 232.284 303.247 232.1C302.42 231.916 301.583 231.705 300.738 231.466C299.91 231.208 299.147 230.887 298.449 230.501C297.769 230.115 297.217 229.6 296.794 228.956C296.372 228.295 296.16 227.449 296.16 226.42C296.16 225.427 296.417 224.517 296.932 223.69C297.465 222.844 298.274 222.173 299.359 221.676C300.462 221.162 301.859 220.904 303.55 220.904C304.672 220.904 305.784 221.051 306.887 221.346C307.99 221.64 308.946 222.063 309.755 222.614L308.845 224.82C308.018 224.269 307.144 223.873 306.225 223.634C305.306 223.377 304.414 223.248 303.55 223.248C302.466 223.248 301.574 223.386 300.876 223.662C300.177 223.938 299.662 224.305 299.331 224.765C299.019 225.225 298.863 225.739 298.863 226.309C298.863 226.989 299.074 227.532 299.497 227.936C299.938 228.341 300.499 228.662 301.179 228.901C301.877 229.14 302.64 229.361 303.468 229.563C304.295 229.747 305.122 229.958 305.949 230.197C306.795 230.436 307.558 230.749 308.238 231.135C308.937 231.521 309.498 232.036 309.92 232.679C310.343 233.323 310.555 234.15 310.555 235.161C310.555 236.135 310.288 237.045 309.755 237.891C309.222 238.718 308.395 239.389 307.273 239.904C306.17 240.4 304.773 240.649 303.082 240.649Z" fill="#BB2B32"/>
</svg>
