<svg width="185" height="143" viewBox="0 0 185 143" fill="none" xmlns="http://www.w3.org/2000/svg">
<path d="M39.0934 94.1755C34.0018 94.1755 29.2782 93.378 24.9227 91.783C20.6285 90.1267 16.8864 87.7956 13.6965 84.7896C10.5679 81.7837 8.11407 78.2564 6.33506 74.2076C4.55605 70.0974 3.66654 65.5886 3.66654 60.6809C3.66654 55.7733 4.55605 51.2951 6.33506 47.2463C8.11407 43.1362 10.5679 39.5782 13.6965 36.5723C16.8864 33.5663 20.6285 31.2659 24.9227 29.6709C29.2782 28.0146 34.0018 27.1864 39.0934 27.1864C45.0439 27.1864 50.3503 28.2293 55.0125 30.315C59.7361 32.4008 63.6622 35.4067 66.7908 39.3328L55.1966 49.8228C53.1108 47.369 50.8104 45.498 48.2952 44.2097C45.8414 42.9215 43.0809 42.2774 40.0136 42.2774C37.3758 42.2774 34.9526 42.7068 32.7442 43.5656C30.5358 44.4244 28.6341 45.682 27.0391 47.3383C25.5055 48.9333 24.2786 50.8657 23.3584 53.1355C22.4995 55.4053 22.0701 57.9204 22.0701 60.6809C22.0701 63.4415 22.4995 65.9566 23.3584 68.2264C24.2786 70.4962 25.5055 72.4592 27.0391 74.1156C28.6341 75.7105 30.5358 76.9374 32.7442 77.7963C34.9526 78.6551 37.3758 79.0845 40.0136 79.0845C43.0809 79.0845 45.8414 78.4404 48.2952 77.1521C50.8104 75.8639 53.1108 73.9929 55.1966 71.5391L66.7908 82.0291C63.6622 85.8938 59.7361 88.8998 55.0125 91.0468C50.3503 93.1326 45.0439 94.1755 39.0934 94.1755ZM96.9216 94.1755C91.6459 94.1755 86.5543 93.5313 81.6467 92.2431C76.8004 90.8935 72.8436 89.1758 69.7764 87.0901L75.7575 73.6555C78.6408 75.4958 81.9534 77.0295 85.6955 78.2564C89.4989 79.4219 93.2716 80.0047 97.0137 80.0047C99.5288 80.0047 101.553 79.79 103.087 79.3606C104.62 78.8698 105.725 78.2564 106.399 77.5202C107.136 76.7227 107.504 75.8026 107.504 74.7597C107.504 73.2874 106.829 72.1218 105.479 71.263C104.13 70.4042 102.381 69.6987 100.234 69.1466C98.0872 68.5945 95.6947 68.0424 93.0569 67.4903C90.4804 66.9382 87.8732 66.2327 85.2354 65.3739C82.6589 64.515 80.2971 63.4108 78.15 62.0612C76.0029 60.6503 74.2546 58.8406 72.905 56.6322C71.5554 54.3624 70.8806 51.5098 70.8806 48.0745C70.8806 44.2097 71.9234 40.7131 74.0092 37.5845C76.1563 34.4558 79.3462 31.9407 83.579 30.039C87.8119 28.1373 93.0876 27.1864 99.4061 27.1864C103.639 27.1864 107.78 27.6772 111.829 28.6587C115.939 29.5789 119.589 30.9592 122.779 32.7995L117.166 46.3262C114.098 44.6698 111.062 43.4429 108.056 42.6454C105.05 41.7866 102.136 41.3572 99.3141 41.3572C96.799 41.3572 94.7746 41.6332 93.2409 42.1853C91.7073 42.6761 90.6031 43.3509 89.9283 44.2097C89.2535 45.0686 88.9161 46.0501 88.9161 47.1543C88.9161 48.5653 89.5602 49.7001 90.8485 50.559C92.1981 51.3565 93.9464 52.0313 96.0935 52.5834C98.3019 53.0741 100.694 53.5956 103.271 54.1477C105.909 54.6998 108.516 55.4052 111.092 56.2641C113.73 57.0616 116.123 58.1658 118.27 59.5767C120.417 60.9263 122.135 62.736 123.423 65.0058C124.772 67.2142 125.447 70.0054 125.447 73.3794C125.447 77.1215 124.374 80.5875 122.227 83.7774C120.141 86.906 116.982 89.4212 112.749 91.3229C108.577 93.2246 103.302 94.1755 96.9216 94.1755ZM133.863 92.8872V28.4747H152.083V78.4404H182.817V92.8872H133.863Z" fill="#EBF3FE"/>
<path d="M9.76603 118.275C8.8924 118.275 8.08192 118.138 7.33459 117.864C6.59779 117.58 5.95572 117.18 5.40838 116.664C4.87157 116.149 4.45054 115.543 4.14529 114.849C3.84005 114.143 3.68742 113.37 3.68742 112.528C3.68742 111.686 3.84005 110.917 4.14529 110.223C4.45054 109.517 4.87157 108.907 5.40838 108.391C5.95572 107.875 6.59779 107.481 7.33459 107.207C8.08192 106.923 8.8924 106.781 9.76603 106.781C10.787 106.781 11.6975 106.96 12.4975 107.317C13.3079 107.675 13.9816 108.191 14.5184 108.865L12.529 110.665C12.1712 110.244 11.7764 109.923 11.3449 109.702C10.9239 109.481 10.4502 109.37 9.92392 109.37C9.47131 109.37 9.05555 109.444 8.67662 109.591C8.29769 109.738 7.9714 109.954 7.69773 110.238C7.43458 110.512 7.22407 110.844 7.06618 111.233C6.91882 111.622 6.84514 112.054 6.84514 112.528C6.84514 113.001 6.91882 113.433 7.06618 113.822C7.22407 114.212 7.43458 114.549 7.69773 114.833C7.9714 115.107 8.29769 115.317 8.67662 115.464C9.05555 115.612 9.47131 115.685 9.92392 115.685C10.4502 115.685 10.9239 115.575 11.3449 115.354C11.7764 115.133 12.1712 114.812 12.529 114.391L14.5184 116.191C13.9816 116.854 13.3079 117.37 12.4975 117.738C11.6975 118.096 10.787 118.275 9.76603 118.275ZM14.401 118.054L19.2796 107.002H22.3584L27.2529 118.054H24.0004L20.1796 108.533H21.4111L17.5903 118.054H14.401ZM17.0692 115.906L17.8745 113.601H23.2742L24.0794 115.906H17.0692ZM28.1391 118.054V107.002H30.7127L35.2914 114.517H33.9336L38.3859 107.002H40.9595L40.9911 118.054H38.1175L38.086 111.375H38.5754L35.244 116.964H33.8546L30.4285 111.375H31.0285V118.054H28.1391ZM41.8768 118.054L46.7555 107.002H49.8343L54.7287 118.054H51.4763L47.6554 108.533H48.887L45.0661 118.054H41.8768ZM44.5451 115.906L45.3503 113.601H50.75L51.5552 115.906H44.5451ZM60.971 118.275C60.0974 118.275 59.2869 118.138 58.5396 117.864C57.8028 117.58 57.1607 117.18 56.6134 116.664C56.0766 116.149 55.6555 115.543 55.3503 114.849C55.045 114.143 54.8924 113.37 54.8924 112.528C54.8924 111.686 55.045 110.917 55.3503 110.223C55.6555 109.517 56.0766 108.907 56.6134 108.391C57.1607 107.875 57.8028 107.481 58.5396 107.207C59.2869 106.923 60.0974 106.781 60.971 106.781C61.992 106.781 62.9025 106.96 63.7025 107.317C64.5129 107.675 65.1866 108.191 65.7234 108.865L63.734 110.665C63.3762 110.244 62.9814 109.923 62.5499 109.702C62.1289 109.481 61.6552 109.37 61.1289 109.37C60.6763 109.37 60.2605 109.444 59.8816 109.591C59.5027 109.738 59.1764 109.954 58.9027 110.238C58.6396 110.512 58.4291 110.844 58.2712 111.233C58.1238 111.622 58.0501 112.054 58.0501 112.528C58.0501 113.001 58.1238 113.433 58.2712 113.822C58.4291 114.212 58.6396 114.549 58.9027 114.833C59.1764 115.107 59.5027 115.317 59.8816 115.464C60.2605 115.612 60.6763 115.685 61.1289 115.685C61.6552 115.685 62.1289 115.575 62.5499 115.354C62.9814 115.133 63.3762 114.812 63.734 114.391L65.7234 116.191C65.1866 116.854 64.5129 117.37 63.7025 117.738C62.9025 118.096 61.992 118.275 60.971 118.275ZM74.5063 107.002H77.6324V118.054H74.5063V107.002ZM70.2434 118.054H67.1172V107.002H70.2434V118.054ZM74.7273 113.743H70.0223V111.154H74.7273V113.743ZM85.4109 118.275C84.5267 118.275 83.711 118.133 82.9637 117.848C82.2163 117.564 81.5638 117.164 81.0059 116.649C80.4585 116.122 80.0323 115.512 79.727 114.817C79.4218 114.122 79.2691 113.359 79.2691 112.528C79.2691 111.696 79.4218 110.933 79.727 110.238C80.0323 109.544 80.4585 108.938 81.0059 108.423C81.5638 107.896 82.2163 107.491 82.9637 107.207C83.711 106.923 84.5267 106.781 85.4109 106.781C86.3056 106.781 87.1213 106.923 87.8581 107.207C88.6055 107.491 89.2528 107.896 89.8001 108.423C90.3475 108.938 90.7738 109.544 91.079 110.238C91.3948 110.933 91.5527 111.696 91.5527 112.528C91.5527 113.359 91.3948 114.128 91.079 114.833C90.7738 115.528 90.3475 116.133 89.8001 116.649C89.2528 117.164 88.6055 117.564 87.8581 117.848C87.1213 118.133 86.3056 118.275 85.4109 118.275ZM85.4109 115.685C85.8319 115.685 86.2214 115.612 86.5793 115.464C86.9477 115.317 87.2634 115.107 87.5266 114.833C87.8002 114.549 88.0108 114.212 88.1581 113.822C88.316 113.433 88.3949 113.001 88.3949 112.528C88.3949 112.044 88.316 111.612 88.1581 111.233C88.0108 110.844 87.8002 110.512 87.5266 110.238C87.2634 109.954 86.9477 109.738 86.5793 109.591C86.2214 109.444 85.8319 109.37 85.4109 109.37C84.9899 109.37 84.5952 109.444 84.2268 109.591C83.8689 109.738 83.5531 109.954 83.2794 110.238C83.0163 110.512 82.8058 110.844 82.6479 111.233C82.5005 111.612 82.4269 112.044 82.4269 112.528C82.4269 113.001 82.5005 113.433 82.6479 113.822C82.8058 114.212 83.0163 114.549 83.2794 114.833C83.5531 115.107 83.8689 115.317 84.2268 115.464C84.5952 115.612 84.9899 115.685 85.4109 115.685ZM92.8735 114.707V112.401H97.4838V114.707H92.8735ZM103.041 118.275C102.136 118.275 101.262 118.164 100.42 117.943C99.5885 117.712 98.9096 117.417 98.3833 117.059L99.4096 114.754C99.9043 115.07 100.473 115.333 101.115 115.543C101.767 115.743 102.415 115.843 103.057 115.843C103.488 115.843 103.836 115.806 104.099 115.733C104.362 115.649 104.551 115.543 104.667 115.417C104.794 115.28 104.857 115.122 104.857 114.943C104.857 114.691 104.741 114.491 104.509 114.343C104.278 114.196 103.978 114.075 103.609 113.98C103.241 113.886 102.83 113.791 102.378 113.696C101.936 113.601 101.488 113.48 101.036 113.333C100.594 113.186 100.188 112.996 99.8201 112.765C99.4517 112.522 99.1517 112.212 98.9201 111.833C98.6886 111.444 98.5728 110.954 98.5728 110.365C98.5728 109.702 98.7517 109.102 99.1096 108.565C99.478 108.028 100.025 107.596 100.752 107.27C101.478 106.944 102.383 106.781 103.467 106.781C104.194 106.781 104.904 106.865 105.599 107.033C106.304 107.191 106.93 107.428 107.478 107.744L106.514 110.065C105.988 109.78 105.467 109.57 104.951 109.433C104.436 109.286 103.936 109.212 103.451 109.212C103.02 109.212 102.673 109.259 102.409 109.354C102.146 109.438 101.957 109.554 101.841 109.702C101.725 109.849 101.667 110.017 101.667 110.207C101.667 110.449 101.778 110.644 101.999 110.791C102.23 110.928 102.53 111.044 102.899 111.138C103.278 111.223 103.688 111.312 104.13 111.407C104.583 111.501 105.03 111.622 105.472 111.77C105.925 111.907 106.336 112.096 106.704 112.338C107.072 112.57 107.367 112.88 107.588 113.27C107.82 113.649 107.935 114.128 107.935 114.707C107.935 115.349 107.751 115.943 107.383 116.491C107.025 117.027 106.483 117.459 105.757 117.785C105.041 118.112 104.136 118.275 103.041 118.275ZM108.053 118.054L112.932 107.002H116.011L120.905 118.054H117.653L113.832 108.533H115.063L111.243 118.054H108.053ZM110.722 115.906L111.527 113.601H116.926L117.732 115.906H110.722ZM112.932 106.102L115.048 103.702H118.047L115.079 106.102H112.932ZM121.791 118.054V107.002H124.365L130.459 114.359H129.244V107.002H132.307V118.054H129.733L123.639 110.696H124.854V118.054H121.791ZM140.022 118.275C139.148 118.275 138.338 118.138 137.59 117.864C136.854 117.58 136.212 117.18 135.664 116.664C135.127 116.149 134.706 115.543 134.401 114.849C134.096 114.143 133.943 113.37 133.943 112.528C133.943 111.686 134.096 110.917 134.401 110.223C134.706 109.517 135.127 108.907 135.664 108.391C136.212 107.875 136.854 107.481 137.59 107.207C138.338 106.923 139.148 106.781 140.022 106.781C141.043 106.781 141.953 106.96 142.753 107.317C143.564 107.675 144.237 108.191 144.774 108.865L142.785 110.665C142.427 110.244 142.032 109.923 141.601 109.702C141.18 109.481 140.706 109.37 140.18 109.37C139.727 109.37 139.311 109.444 138.933 109.591C138.554 109.738 138.227 109.954 137.954 110.238C137.69 110.512 137.48 110.844 137.322 111.233C137.175 111.622 137.101 112.054 137.101 112.528C137.101 113.001 137.175 113.433 137.322 113.822C137.48 114.212 137.69 114.549 137.954 114.833C138.227 115.107 138.554 115.317 138.933 115.464C139.311 115.612 139.727 115.685 140.18 115.685C140.706 115.685 141.18 115.575 141.601 115.354C142.032 115.133 142.427 114.812 142.785 114.391L144.774 116.191C144.237 116.854 143.564 117.37 142.753 117.738C141.953 118.096 141.043 118.275 140.022 118.275ZM153.557 107.002H156.683V118.054H153.557V107.002ZM149.294 118.054H146.168V107.002H149.294V118.054ZM153.778 113.743H149.073V111.154H153.778V113.743ZM161.762 111.28H166.893V113.617H161.762V111.28ZM161.983 115.638H167.762V118.054H158.888V107.002H167.556V109.417H161.983V115.638ZM168.944 118.054V116.096L175.449 108.375L175.828 109.481H169.086V107.002H178.606V108.959L172.101 116.68L171.723 115.575H178.843V118.054H168.944Z" fill="#EBF3FE"/>
<path d="M6.86121 138.501V127.449H8.44007V137.128H14.4239V138.501H6.86121ZM32.0765 138.628C31.2344 138.628 30.4502 138.486 29.724 138.201C29.0082 137.917 28.3872 137.523 27.8609 137.017C27.3346 136.502 26.9241 135.902 26.6294 135.217C26.3347 134.533 26.1873 133.786 26.1873 132.975C26.1873 132.165 26.3347 131.418 26.6294 130.733C26.9241 130.049 27.3346 129.455 27.8609 128.949C28.3872 128.434 29.0082 128.034 29.724 127.749C30.4397 127.465 31.2239 127.323 32.0765 127.323C32.9185 127.323 33.6922 127.465 34.3974 127.749C35.1131 128.023 35.7341 128.418 36.2604 128.934C36.7972 129.439 37.2077 130.034 37.4919 130.718C37.7867 131.402 37.934 132.154 37.934 132.975C37.934 133.796 37.7867 134.549 37.4919 135.233C37.2077 135.917 36.7972 136.517 36.2604 137.033C35.7341 137.538 35.1131 137.933 34.3974 138.217C33.6922 138.491 32.9185 138.628 32.0765 138.628ZM32.0765 137.223C32.6869 137.223 33.2501 137.117 33.7658 136.907C34.2921 136.696 34.7447 136.402 35.1237 136.023C35.5131 135.633 35.8131 135.181 36.0236 134.665C36.2446 134.149 36.3552 133.586 36.3552 132.975C36.3552 132.365 36.2446 131.802 36.0236 131.286C35.8131 130.77 35.5131 130.323 35.1237 129.944C34.7447 129.555 34.2921 129.255 33.7658 129.044C33.2501 128.834 32.6869 128.728 32.0765 128.728C31.4554 128.728 30.8818 128.834 30.3555 129.044C29.8397 129.255 29.3871 129.555 28.9977 129.944C28.6082 130.323 28.303 130.77 28.0819 131.286C27.8714 131.802 27.7662 132.365 27.7662 132.975C27.7662 133.586 27.8714 134.149 28.0819 134.665C28.303 135.181 28.6082 135.633 28.9977 136.023C29.3871 136.402 29.8397 136.696 30.3555 136.907C30.8818 137.117 31.4554 137.223 32.0765 137.223ZM56.3884 138.628C55.5358 138.628 54.7517 138.491 54.0359 138.217C53.3202 137.933 52.6992 137.538 52.1729 137.033C51.6466 136.517 51.2361 135.917 50.9414 135.233C50.6466 134.549 50.4993 133.796 50.4993 132.975C50.4993 132.154 50.6466 131.402 50.9414 130.718C51.2361 130.034 51.6466 129.439 52.1729 128.934C52.7097 128.418 53.336 128.023 54.0517 127.749C54.7675 127.465 55.5569 127.323 56.42 127.323C57.2936 127.323 58.0936 127.465 58.8199 127.749C59.5461 128.034 60.1619 128.46 60.6671 129.028L59.6882 130.007C59.2356 129.565 58.7409 129.244 58.2041 129.044C57.6778 128.834 57.1042 128.728 56.4832 128.728C55.8516 128.728 55.2622 128.834 54.7148 129.044C54.178 129.255 53.7096 129.549 53.3096 129.928C52.9202 130.307 52.6149 130.76 52.3939 131.286C52.1834 131.802 52.0781 132.365 52.0781 132.975C52.0781 133.575 52.1834 134.139 52.3939 134.665C52.6149 135.181 52.9202 135.633 53.3096 136.023C53.7096 136.402 54.178 136.696 54.7148 136.907C55.2516 137.117 55.8358 137.223 56.4674 137.223C57.0568 137.223 57.6199 137.133 58.1567 136.954C58.7041 136.765 59.2093 136.454 59.6724 136.023L60.5724 137.223C60.0251 137.686 59.383 138.038 58.6462 138.28C57.9199 138.512 57.1673 138.628 56.3884 138.628ZM59.0567 137.017V132.912H60.5724V137.223L59.0567 137.017ZM74.6473 138.501V127.449H76.2262V138.501H74.6473ZM93.8079 138.628C92.9658 138.628 92.1606 138.501 91.3922 138.249C90.6238 137.986 90.0186 137.649 89.5765 137.238L90.1607 136.007C90.5817 136.375 91.1186 136.681 91.7711 136.923C92.4237 137.165 93.1027 137.286 93.8079 137.286C94.4499 137.286 94.971 137.212 95.3709 137.065C95.7709 136.917 96.0656 136.717 96.2551 136.465C96.4446 136.202 96.5393 135.907 96.5393 135.581C96.5393 135.202 96.413 134.896 96.1604 134.665C95.9183 134.433 95.5972 134.249 95.1973 134.112C94.8078 133.965 94.3763 133.839 93.9026 133.733C93.4289 133.628 92.95 133.507 92.4658 133.37C91.9922 133.223 91.5554 133.039 91.1554 132.818C90.7659 132.597 90.4502 132.302 90.2081 131.933C89.966 131.554 89.8449 131.07 89.8449 130.481C89.8449 129.912 89.9923 129.391 90.287 128.918C90.5923 128.434 91.0554 128.049 91.6764 127.765C92.308 127.471 93.1079 127.323 94.0763 127.323C94.7184 127.323 95.3552 127.407 95.9867 127.576C96.6182 127.744 97.1656 127.986 97.6287 128.302L97.1077 129.565C96.634 129.249 96.1341 129.023 95.6078 128.886C95.0815 128.739 94.571 128.665 94.0763 128.665C93.4553 128.665 92.9448 128.744 92.5448 128.902C92.1448 129.06 91.8501 129.27 91.6606 129.534C91.4817 129.797 91.3922 130.091 91.3922 130.418C91.3922 130.807 91.5133 131.118 91.7554 131.349C92.008 131.581 92.329 131.765 92.7185 131.902C93.1184 132.039 93.5553 132.165 94.0289 132.281C94.5026 132.386 94.9762 132.507 95.4499 132.644C95.9341 132.781 96.3709 132.96 96.7603 133.181C97.1603 133.402 97.4814 133.696 97.7234 134.065C97.9655 134.433 98.0866 134.907 98.0866 135.486C98.0866 136.044 97.934 136.565 97.6287 137.049C97.3235 137.523 96.8498 137.907 96.2077 138.201C95.5762 138.486 94.7762 138.628 93.8079 138.628ZM113.486 138.501V128.823H109.696V127.449H118.838V128.823H115.049V138.501H113.486ZM131.61 138.501V127.449H133.188V138.501H131.61ZM152.491 138.628C151.649 138.628 150.87 138.491 150.154 138.217C149.449 137.933 148.833 137.538 148.307 137.033C147.791 136.517 147.386 135.917 147.091 135.233C146.797 134.549 146.649 133.796 146.649 132.975C146.649 132.154 146.797 131.402 147.091 130.718C147.386 130.034 147.797 129.439 148.323 128.934C148.849 128.418 149.465 128.023 150.17 127.749C150.886 127.465 151.665 127.323 152.507 127.323C153.359 127.323 154.144 127.471 154.859 127.765C155.586 128.049 156.201 128.476 156.707 129.044L155.68 130.039C155.259 129.597 154.786 129.27 154.259 129.06C153.733 128.839 153.17 128.728 152.57 128.728C151.949 128.728 151.37 128.834 150.833 129.044C150.307 129.255 149.849 129.549 149.46 129.928C149.07 130.307 148.765 130.76 148.544 131.286C148.333 131.802 148.228 132.365 148.228 132.975C148.228 133.586 148.333 134.154 148.544 134.681C148.765 135.196 149.07 135.644 149.46 136.023C149.849 136.402 150.307 136.696 150.833 136.907C151.37 137.117 151.949 137.223 152.57 137.223C153.17 137.223 153.733 137.117 154.259 136.907C154.786 136.686 155.259 136.349 155.68 135.896L156.707 136.891C156.201 137.459 155.586 137.891 154.859 138.186C154.144 138.48 153.354 138.628 152.491 138.628ZM173.216 138.628C172.374 138.628 171.569 138.501 170.801 138.249C170.032 137.986 169.427 137.649 168.985 137.238L169.569 136.007C169.99 136.375 170.527 136.681 171.18 136.923C171.832 137.165 172.511 137.286 173.216 137.286C173.859 137.286 174.38 137.212 174.78 137.065C175.18 136.917 175.474 136.717 175.664 136.465C175.853 136.202 175.948 135.907 175.948 135.581C175.948 135.202 175.822 134.896 175.569 134.665C175.327 134.433 175.006 134.249 174.606 134.112C174.216 133.965 173.785 133.839 173.311 133.733C172.838 133.628 172.359 133.507 171.874 133.37C171.401 133.223 170.964 133.039 170.564 132.818C170.175 132.597 169.859 132.302 169.617 131.933C169.375 131.554 169.254 131.07 169.254 130.481C169.254 129.912 169.401 129.391 169.696 128.918C170.001 128.434 170.464 128.049 171.085 127.765C171.717 127.471 172.517 127.323 173.485 127.323C174.127 127.323 174.764 127.407 175.395 127.576C176.027 127.744 176.574 127.986 177.037 128.302L176.516 129.565C176.043 129.249 175.543 129.023 175.016 128.886C174.49 128.739 173.98 128.665 173.485 128.665C172.864 128.665 172.353 128.744 171.953 128.902C171.553 129.06 171.259 129.27 171.069 129.534C170.89 129.797 170.801 130.091 170.801 130.418C170.801 130.807 170.922 131.118 171.164 131.349C171.417 131.581 171.738 131.765 172.127 131.902C172.527 132.039 172.964 132.165 173.438 132.281C173.911 132.386 174.385 132.507 174.858 132.644C175.343 132.781 175.779 132.96 176.169 133.181C176.569 133.402 176.89 133.696 177.132 134.065C177.374 134.433 177.495 134.907 177.495 135.486C177.495 136.044 177.343 136.565 177.037 137.049C176.732 137.523 176.258 137.907 175.616 138.201C174.985 138.486 174.185 138.628 173.216 138.628Z" fill="#BB2B32"/>
</svg>
