<svg width="88" height="34" viewBox="0 0 88 34" fill="none" xmlns="http://www.w3.org/2000/svg">
<path d="M17.5266 33.63C15.0366 33.63 12.7266 33.24 10.5966 32.46C8.49663 31.65 6.66663 30.51 5.10663 29.04C3.57663 27.57 2.37663 25.845 1.50663 23.865C0.636631 21.855 0.201631 19.65 0.201631 17.25C0.201631 14.85 0.636631 12.66 1.50663 10.68C2.37663 8.67 3.57663 6.93 5.10663 5.46C6.66663 3.99 8.49663 2.865 10.5966 2.085C12.7266 1.275 15.0366 0.869998 17.5266 0.869998C20.4366 0.869998 23.0316 1.38 25.3116 2.4C27.6216 3.42 29.5416 4.89 31.0716 6.81L25.4016 11.94C24.3816 10.74 23.2566 9.825 22.0266 9.195C20.8266 8.565 19.4766 8.25 17.9766 8.25C16.6866 8.25 15.5016 8.46 14.4216 8.88C13.3416 9.3 12.4116 9.915 11.6316 10.725C10.8816 11.505 10.2816 12.45 9.83163 13.56C9.41163 14.67 9.20163 15.9 9.20163 17.25C9.20163 18.6 9.41163 19.83 9.83163 20.94C10.2816 22.05 10.8816 23.01 11.6316 23.82C12.4116 24.6 13.3416 25.2 14.4216 25.62C15.5016 26.04 16.6866 26.25 17.9766 26.25C19.4766 26.25 20.8266 25.935 22.0266 25.305C23.2566 24.675 24.3816 23.76 25.4016 22.56L31.0716 27.69C29.5416 29.58 27.6216 31.05 25.3116 32.1C23.0316 33.12 20.4366 33.63 17.5266 33.63ZM45.8067 33.63C43.2267 33.63 40.7367 33.315 38.3367 32.685C35.9667 32.025 34.0317 31.185 32.5317 30.165L35.4567 23.595C36.8667 24.495 38.4867 25.245 40.3167 25.845C42.1767 26.415 44.0217 26.7 45.8517 26.7C47.0817 26.7 48.0717 26.595 48.8217 26.385C49.5717 26.145 50.1117 25.845 50.4417 25.485C50.8017 25.095 50.9817 24.645 50.9817 24.135C50.9817 23.415 50.6517 22.845 49.9917 22.425C49.3317 22.005 48.4767 21.66 47.4267 21.39C46.3767 21.12 45.2067 20.85 43.9167 20.58C42.6567 20.31 41.3817 19.965 40.0917 19.545C38.8317 19.125 37.6767 18.585 36.6267 17.925C35.5767 17.235 34.7217 16.35 34.0617 15.27C33.4017 14.16 33.0717 12.765 33.0717 11.085C33.0717 9.195 33.5817 7.485 34.6017 5.955C35.6517 4.425 37.2117 3.195 39.2817 2.265C41.3517 1.335 43.9317 0.869998 47.0217 0.869998C49.0917 0.869998 51.1167 1.11 53.0967 1.59C55.1067 2.04 56.8917 2.715 58.4517 3.615L55.7067 10.23C54.2067 9.42 52.7217 8.82 51.2517 8.43C49.7817 8.01 48.3567 7.8 46.9767 7.8C45.7467 7.8 44.7567 7.935 44.0067 8.205C43.2567 8.445 42.7167 8.775 42.3867 9.195C42.0567 9.615 41.8917 10.095 41.8917 10.635C41.8917 11.325 42.2067 11.88 42.8367 12.3C43.4967 12.69 44.3517 13.02 45.4017 13.29C46.4817 13.53 47.6517 13.785 48.9117 14.055C50.2017 14.325 51.4767 14.67 52.7367 15.09C54.0267 15.48 55.1967 16.02 56.2467 16.71C57.2967 17.37 58.1367 18.255 58.7667 19.365C59.4267 20.445 59.7567 21.81 59.7567 23.46C59.7567 25.29 59.2317 26.985 58.1817 28.545C57.1617 30.075 55.6167 31.305 53.5467 32.235C51.5067 33.165 48.9267 33.63 45.8067 33.63ZM63.8724 33V1.5H72.7824V25.935H87.8124V33H63.8724Z" fill="white"/>
</svg>
