<svg width="121" height="120" viewBox="0 0 121 120" fill="none" xmlns="http://www.w3.org/2000/svg">
<rect x="0.197144" width="120" height="120" rx="9.56311" fill="#0C0F2F"/>
<path d="M32.0142 77.5959C29.3426 77.5959 26.8641 77.1774 24.5787 76.3405C22.3256 75.4715 20.3621 74.2483 18.6883 72.6711C17.0467 71.0939 15.7592 69.243 14.8257 67.1186C13.8923 64.962 13.4255 62.5962 13.4255 60.0211C13.4255 57.4461 13.8923 55.0963 14.8257 52.9719C15.7592 50.8153 17.0467 48.9484 18.6883 47.3712C20.3621 45.7939 22.3256 44.5869 24.5787 43.75C26.8641 42.8809 29.3426 42.4464 32.0142 42.4464C35.1365 42.4464 37.9207 42.9936 40.3671 44.088C42.8455 45.1824 44.9056 46.7596 46.5472 48.8196L40.4636 54.3238C39.3692 53.0363 38.1622 52.0545 36.8424 51.3786C35.5549 50.7026 34.1064 50.3647 32.497 50.3647C31.1129 50.3647 29.8415 50.59 28.6827 51.0406C27.524 51.4912 26.5261 52.1511 25.6892 53.0202C24.8845 53.8571 24.2408 54.871 23.7579 56.062C23.3073 57.2529 23.082 58.5727 23.082 60.0211C23.082 61.4696 23.3073 62.7893 23.7579 63.9803C24.2408 65.1712 24.8845 66.2013 25.6892 67.0703C26.5261 67.9072 27.524 68.551 28.6827 69.0016C29.8415 69.4523 31.1129 69.6776 32.497 69.6776C34.1064 69.6776 35.5549 69.3396 36.8424 68.6637C38.1622 67.9877 39.3692 67.006 40.4636 65.7184L46.5472 71.2226C44.9056 73.2505 42.8455 74.8277 40.3671 75.9543C37.9207 77.0487 35.1365 77.5959 32.0142 77.5959ZM62.357 77.5959C59.5888 77.5959 56.9172 77.2579 54.3421 76.5819C51.7993 75.8738 49.7231 74.9725 48.1137 73.8781L51.2521 66.8289C52.7649 67.7946 54.5031 68.5993 56.4666 69.243C58.4622 69.8546 60.4418 70.1604 62.4053 70.1604C63.725 70.1604 64.7872 70.0477 65.5919 69.8224C66.3966 69.5649 66.976 69.243 67.3301 68.8568C67.7163 68.4383 67.9095 67.9555 67.9095 67.4083C67.9095 66.6358 67.5554 66.0242 66.8472 65.5736C66.1391 65.1229 65.2217 64.7528 64.0952 64.4631C62.9686 64.1734 61.7132 63.8837 60.3291 63.594C58.9772 63.3043 57.6092 62.9342 56.2251 62.4835C54.8732 62.0329 53.634 61.4535 52.5074 60.7454C51.3808 60.005 50.4635 59.0555 49.7553 57.8967C49.0472 56.7057 48.6931 55.209 48.6931 53.4064C48.6931 51.3786 49.2403 49.5439 50.3347 47.9023C51.4613 46.2607 53.1351 44.941 55.3561 43.9431C57.577 42.9453 60.3452 42.4464 63.6606 42.4464C65.8816 42.4464 68.0543 42.7039 70.1787 43.2189C72.3353 43.7017 74.2505 44.4259 75.9243 45.3916L72.9791 52.4891C71.3697 51.62 69.7764 50.9762 68.1991 50.5578C66.6219 50.1072 65.093 49.8818 63.6123 49.8818C62.2926 49.8818 61.2304 50.0267 60.4257 50.3164C59.621 50.5739 59.0416 50.928 58.6875 51.3786C58.3335 51.8292 58.1564 52.3442 58.1564 52.9236C58.1564 53.664 58.4944 54.2594 59.1704 54.7101C59.8785 55.1285 60.7959 55.4826 61.9225 55.7723C63.0812 56.0298 64.3366 56.3034 65.6885 56.5931C67.0726 56.8828 68.4406 57.2529 69.7925 57.7036C71.1766 58.122 72.4319 58.7014 73.5585 59.4417C74.6851 60.1499 75.5863 61.0994 76.2623 62.2904C76.9704 63.4492 77.3245 64.9137 77.3245 66.6841C77.3245 68.6476 76.7612 70.4662 75.6346 72.14C74.5402 73.7816 72.8825 75.1013 70.6615 76.0991C68.4727 77.097 65.7046 77.5959 62.357 77.5959ZM81.7404 76.9199V43.1223H91.3003V69.3396H107.427V76.9199H81.7404Z" fill="white"/>
</svg>
